<svg xmlns="http://www.w3.org/2000/svg" xml:space="preserve" width="60px" height="50px" version="1.1" style="shape-rendering:geometricPrecision; text-rendering:geometricPrecision; image-rendering:optimizeQuality; fill-rule:evenodd; clip-rule:evenodd" viewBox="0 0 0.3 0.25" xmlns:xlink="http://www.w3.org/1999/xlink" xmlns:xodm="http://www.corel.com/coreldraw/odm/2003">
                                        <defs>
                                        <style type="text/css">
                                        
                                        .fil0 {fill:#7EA3A2}
                                        
                                        </style>
                                        </defs>
                                        <g id="Camada_x0020_1">
                                        <metadata id="CorelCorpID_0Corel-Layer"></metadata>
                                        <g id="_1561059169168">
                                        <path class="fil0" d="M0.04 0.11l0.02 -0.02c0,0 0.01,-0.01 0.01,-0.01 -0.01,-0.02 -0.05,-0.04 -0.07,-0.04 0,0 0.01,0.02 0.01,0.03 0,0.04 -0.03,0.1 0.01,0.13 0.01,0.01 0.01,0.02 0.02,0.02l0.01 0c-0.01,-0.02 -0.02,-0.04 -0.02,-0.06 0,-0.03 0.01,-0.03 0.01,-0.07 -0.01,-0.03 0,0.01 0,0.02z"></path>
                                        <path class="fil0" d="M0.3 0.07c-0.03,0.02 -0.03,0.02 -0.06,0.02 -0.03,0.01 -0.05,0 -0.08,0.01 -0.03,0 -0.07,0.02 -0.08,0.05 -0.01,0.01 -0.02,0.04 -0.02,0.05 0.05,-0.04 0.09,-0.04 0.13,-0.05 0.02,-0.01 0.04,-0.01 0.07,-0.02 -0.04,0.03 -0.09,0.03 -0.13,0.04 -0.02,0.01 -0.03,0.02 -0.04,0.03 -0.01,0.01 -0.02,0.02 -0.02,0.03 0,0 0,0 0,0 0.05,0.05 0.15,0.01 0.19,-0.05 0.03,-0.04 0.04,-0.06 0.04,-0.11z"></path>
                                        <path class="fil0" d="M0.18 0.09c0,-0.01 -0.01,-0.02 -0.01,-0.03 0,-0.01 -0.02,-0.03 -0.02,-0.04 0,-0.01 -0.01,-0.02 -0.01,-0.02 -0.02,0.06 -0.03,0.04 -0.08,0.1 -0.02,0.03 -0.03,0.07 -0.01,0.1l0 -0.02c0.01,-0.02 0.01,-0.04 0.03,-0.05 0,-0.01 0.01,-0.01 0.02,-0.02 0.02,-0.02 0.05,-0.03 0.08,-0.02z"></path>
                                        </g>
                                        </g>
                                        </svg>